/* XPM */
static char * flag_xpm[] = {
"26 30 6 1",
" 	c None",
"#	c #a0a0a0",
"c	c #909090",
"m	c #332104",
"p	c #000000",
"f	c #ff1e00",
"            ##            ",
"          ######          ",
"         ########         ",
"       ####cccc####       ",
"      ####cccccc####      ",
"    ####cccccccccc####    ",
"   ####cccccccccccc####   ",
" ####cccccccccccccccc#### ",
"####cccccccpfccccccccc####",
"##cccccccccpfffccccccccc##",
"##cccccccccpfffffccccccc##",
"##cccccccccpfffffffccccc##",
"##cccccccccpfffffccccccc##",
"##cccccccccpfffccccccccc##",
"##cccccccccpfccccccccccc##",
"##cccccccccppccccccccccc##",
"##cccccccccppccccccccccc##",
"##cccccccccppccccccccccc##",
"##cccccccccppccccccccccc##",
"##ccccccccmmmmmccccccccc##",
"##cccccccmmmmmmmmccccccc##",
"####ccccmmmmmmmmmmcccc####",
" ####cccccccccccccccc#### ",
"   ####cccccccccccc####   ",
"    ####cccccccccc####    ",
"      ####cccccc####      ",
"       ####cccc####       ",
"         ########         ",
"          ######          ",
"            ##            "};
