/* XPM */
static char * flag_wrong_xpm[] = {
"26 30 7 1",
" 	c None",
"#	c #A0A0A0",
"c	c #909090",
"@	c #9D1200",
"p	c #000000",
"f	c #FF1E00",
"m	c #332104",
"            ##            ",
"          ######          ",
"         ########         ",
"       ####cccc####       ",
"      ####cccccc####      ",
"    ####cccccccccc####    ",
"   ####cccccccccccc####   ",
" ####@@cccccccccccc@@#### ",
"####c@@@cccpfccccc@@@c####",
"##cccc@@@ccpfffcc@@@cccc##",
"##ccccc@@@cpffff@@@ccccc##",
"##cccccc@@@pfff@@@fccccc##",
"##ccccccc@@@ff@@@ccccccc##",
"##cccccccc@@@@@@cccccccc##",
"##ccccccccc@@@@ccccccccc##",
"##ccccccccc@@@@ccccccccc##",
"##cccccccc@@@@@@cccccccc##",
"##ccccccc@@@pc@@@ccccccc##",
"##cccccc@@@ppcc@@@cccccc##",
"##ccccc@@@mmmmmc@@@ccccc##",
"##cccc@@@mmmmmmmm@@@cccc##",
"####c@@@mmmmmmmmmm@@@c####",
" ####@@cccccccccccc@@#### ",
"   ####cccccccccccc####   ",
"    ####cccccccccc####    ",
"      ####cccccc####      ",
"       ####cccc####       ",
"         ########         ",
"          ######          ",
"            ##            "};
