/* XPM */
static char * D:\00\Unbenannt_B_xpm[] = {
"26 30 2 1",
" 	c None",
".	c #000000",
"            ..            ",
"          ......          ",
"         ...  ...         ",
"       ....    ....       ",
"      ...        ...      ",
"    ....          ....    ",
"   ...              ...   ",
" ....                .... ",
"...                    ...",
"..                      ..",
"..                      ..",
"..                      ..",
"..                      ..",
"..                      ..",
"..                      ..",
"..                      ..",
"..                      ..",
"..                      ..",
"..                      ..",
"..                      ..",
"..                      ..",
"...                    ...",
" ....                .... ",
"   ...              ...   ",
"    ....          ....    ",
"      ...        ...      ",
"       ....    ....       ",
"         ...  ...         ",
"          ......          ",
"            ..            "};
